<?xml version="1.0" encoding="utf-8"?>
<!-- Generator: Adobe Illustrator 26.5.0, SVG Export Plug-In . SVG Version: 6.00 Build 0)  -->
<svg version="1.1" id="Layer_1" xmlns="http://www.w3.org/2000/svg" xmlns:xlink="http://www.w3.org/1999/xlink" x="0px" y="0px"
	 viewBox="0 0 500 196" style="enable-background:new 0 0 500 196;" xml:space="preserve">
<path d="M483,123.1l-25.7-58.8C451,49.9,440.7,38,428.2,29.8c-12.6-8.2-27.6-12.9-43.3-12.9l-37,84.5l0.1-81.1
	c-22.1,0-40.9,13.8-48.4,33.2c-1.2-3.1-2.8-6.1-4.6-8.8c-5.8-8.8-14-15.6-24.6-20.4c-10.6-4.7-23.2-7.1-37.8-7.1h-75.1v81.6
	l-35.7-81.6c-31.4,0-59.8,18.6-72.4,47.4l-26.1,59.6c-2,4.6-3,9.4-3,14c0,18.4,14.9,35,35,35L66,146h59.3l10.4,27.2
	c14.9,0,27-8.9,32.4-21c1.5,2,3.1,3.8,4.8,5.6c9.5,9.5,22.7,15.4,37.2,15.4V134h14.3l9,13.3c10.9,16.2,29.2,25.9,48.7,25.9h24.9l0,0
	h40.7l0-8.3c6,5,13.7,8.1,22.4,8.1l10.4-27.2h59.3l10.4,27.2C476,172.9,493.2,146.6,483,123.1z M80.5,108.1l15.1-39.3l15.1,39.3
	H80.5z M245.5,89.4c-3.5,3.3-8.9,4.9-16.1,4.9h-19.2V57.8h19.2c7.3,0,12.7,1.6,16.1,4.9c3.5,3.3,5.2,7.7,5.2,13.4
	S249,86.2,245.5,89.4z M274.4,125.2c8.7-4.5,15.6-10.5,20.7-18.1c0.3-0.5,0.7-1,1-1.5l-0.3,50.8L274.4,125.2z M395.2,107.8
	l15.1-39.3l15.1,39.3H395.2z"/>
</svg>
